<svg clip-rule="evenodd" fill-rule="evenodd" stroke-linejoin="round" stroke-miterlimit="2" viewBox="0 0 560 400" xmlns="http://www.w3.org/2000/svg"><path d="m251.582 45.539h-4.193c-1.301.001-2.375-1.061-2.389-2.362v-16.692c-.045-4.915-4.108-8.93-9.023-8.917h-6.9c-1.3 0-2.374 1.062-2.388 2.362v23.248c-.014 1.3-1.088 2.362-2.388 2.362h-4.193c-1.3 0-2.374-1.062-2.388-2.362v-32.138c.014-1.3 1.088-2.362 2.388-2.362h15.87c9.68-.024 17.727 7.785 17.992 17.462v17.038c-.014 1.3-1.088 2.362-2.388 2.362zm-56-.08c-9.992-.108-18.154-8.358-18.154-18.351 0-10.068 8.284-18.352 18.352-18.352s18.352 8.284 18.352 18.352v.013c-.077 10.11-8.436 18.376-18.546 18.339zm0-27.945c-5.24.043-9.528 4.366-9.528 9.607 0 5.27 4.337 9.607 9.607 9.607s9.607-4.337 9.607-9.607c0-5.271-4.337-9.607-9.607-9.607-.026 0-.053 0-.079 0zm-32.824 19.086c2.228.234 4.47-.31 6.343-1.539.933-.631 2.192-.519 3 .265l3.052 3.025c.442.434.691 1.028.691 1.648 0 .729-.345 1.417-.93 1.852-3.21 2.38-7.103 3.665-11.099 3.665-10.225 0-18.639-8.414-18.639-18.639 0-.396.013-.793.038-1.188.842-9.576 8.959-17.012 18.572-17.012 3.996 0 7.887 1.285 11.098 3.663.585.435.93 1.123.93 1.852 0 .62-.249 1.214-.691 1.648l-3.052 3.025c-.797.778-2.038.9-2.972.292-1.59-1.084-3.471-1.664-5.395-1.664-5.254 0-9.577 4.323-9.577 9.577 0 4.898 3.757 9.046 8.631 9.53zm-23.592 9.023-16.215-.08c-.045 0-.09.001-.136.001-10.104 0-18.418-8.315-18.418-18.418 0-10.104 8.314-18.418 18.418-18.418h.136l16.215-.08h.027c1.3 0 2.374 1.062 2.388 2.362v32.27c-.014 1.3-1.088 2.362-2.388 2.362-.009 0-.018 0-.027 0zm-6.555-25.693c-.014-1.3-1.088-2.362-2.388-2.362h-7.271c-.01 0-.02 0-.03 0-5.271 0-9.607 4.337-9.607 9.607 0 .098.001.195.004.293.298 5.18 4.684 9.26 9.872 9.182h7.033c1.3 0 2.374-1.062 2.388-2.362zm-33.783 25.609h-4.166c-1.3 0-2.374-1.062-2.388-2.362v-16.692c-.045-4.915-4.108-8.93-9.023-8.917h-6.9c-1.3 0-2.374 1.062-2.388 2.362v23.248c-.014 1.3-1.088 2.362-2.388 2.362h-4.22c-1.3 0-2.374-1.062-2.388-2.362v-32.138c.014-1.3 1.088-2.362 2.388-2.362h15.87c9.678-.031 17.721 7.787 17.965 17.462v17.038c-.014 1.29-1.072 2.348-2.362 2.362zm-71.6 8.306c-14.843.07-27.124-12.066-27.228-26.909.127-14.842 12.373-26.983 27.215-26.983s27.088 12.141 27.215 26.983c-.091 14.838-12.364 26.979-27.202 26.91zm.69-36.012c2.2-1.035 7.7-4.22 10.536-5.467 1.077-1.523 2.625-2.652 4.405-3.211-6.104.285-11.699 3.537-14.968 8.7zm22.053-3.5c2.335 8.625-1.115 21.045-14.41 26.963-.645.305-1.359.433-2.07.372-1.44-.116-2.793-.737-3.821-1.752-.663-.8-.4-.61.186-1.194 5.468-5.471 7.116-13.736 4.166-20.886 2.972-1.592 4.538-2.468 7.112-3.636 1.088-.478 3.45-1.062 4.485 2.919 1.479 7.162-.533 14.616-5.414 20.061h.027l-.239.265.292-.318c5.451-5.136 8.06-12.625 6.98-20.036-.663-5.414-3.025-4.989-5.069-4.14-3.078 1.3-7.165 3.742-9.739 5.175-1.964 1.142-4.024 2.11-6.157 2.892-1.52 4.108-1.585 8.615-.186 12.765-3.279-3.745-4.625-8.816-3.636-13.694-.949-1.589-2.865-2.345-4.644-1.831-.232 4.004.355 8.013 1.725 11.783-6.273-6.163-6.522-16.333-.559-22.796-1.645 2.919-.663 7.271-.663 7.271s1.035-6.1 4.007-10.031c1.115-.652 2.299-1.177 3.53-1.566-6.138 1.423-11.014 6.125-12.658 12.208-2.84 3.268-4.405 7.454-4.405 11.783 0 10 8.227 18.63 18.338 18.656 13.107-.157 23.826-10.936 23.91-24.044-.012-2.437-.378-4.86-1.088-7.192z" fill-rule="nonzero" transform="matrix(1.66998 0 0 1.66998 67.9381 155.078)"/></svg>